<?xml version="1.0" standalone="no"?>
<!DOCTYPE svg PUBLIC "-//W3C//DTD SVG 20010904//EN"
 "http://www.w3.org/TR/2001/REC-SVG-20010904/DTD/svg10.dtd">
<svg version="1.0" xmlns="http://www.w3.org/2000/svg"
 width="100.000000pt" height="100.000000pt" viewBox="0 0 100.000000 100.000000"
 preserveAspectRatio="xMidYMid meet">

<g transform="translate(0.000000,100.000000) scale(0.100000,-0.100000)"
fill="#000000" stroke="none">
<path d="M640 993 c-14 -2 -36 -13 -50 -23 l-25 -20 43 0 c32 0 49 -6 68 -25
24 -24 24 -25 22 -192 -3 -156 -4 -168 -23 -178 -11 -5 -20 -19 -20 -29 0 -24
-27 -41 -50 -32 -12 4 -16 14 -13 31 l5 25 -94 0 c-59 0 -92 -4 -88 -10 3 -5
1 -19 -5 -30 -17 -31 -54 -23 -58 13 -2 15 -9 27 -17 27 -24 0 -37 37 -29 85
8 58 -1 93 -23 91 -15 -1 -19 9 -21 52 -3 47 -1 53 15 50 9 -2 20 -14 24 -28
4 -16 7 1 8 47 1 80 -4 86 -80 85 -86 -1 -143 -62 -136 -147 2 -27 8 -60 12
-72 5 -17 3 -23 -8 -23 -23 0 -75 -66 -82 -104 -10 -50 2 -91 38 -128 25 -27
32 -45 39 -97 8 -64 7 -64 -27 -103 -31 -33 -35 -45 -35 -91 0 -64 24 -107 73
-130 51 -24 107 -22 150 7 l35 24 41 -20 c22 -11 70 -25 106 -31 204 -35 417
101 466 298 7 28 23 62 36 76 51 56 50 150 -2 199 -20 18 -25 33 -25 69 0 52
-23 93 -66 122 -24 16 -29 26 -30 63 -3 95 -82 162 -174 149z m100 -218 c0
-42 -3 -55 -15 -55 -12 0 -15 13 -15 55 0 42 3 55 15 55 12 0 15 -13 15 -55z
m-369 -387 c16 -35 27 -52 23 -38 -3 14 -6 27 -6 30 -1 42 26 40 39 -2 l10
-33 8 38 c8 40 19 47 33 21 8 -14 10 -14 21 0 8 9 20 16 27 16 16 0 19 -36 4
-45 -6 -4 -7 -11 -4 -17 4 -7 14 -1 25 13 20 25 26 11 9 -21 -9 -17 -58 -40
-86 -40 -8 0 -14 10 -14 22 0 19 -2 20 -12 6 -18 -21 -60 -48 -75 -48 -7 0
-13 8 -14 18 0 13 -2 12 -9 -5 -8 -20 -56 -53 -77 -53 -7 0 -49 74 -81 143 -2
4 5 7 16 7 11 0 23 -6 25 -12 3 -7 6 -3 6 10 1 31 30 40 48 16 8 -10 12 -26
10 -36 -3 -11 3 -18 20 -21 21 -4 24 -2 19 17 -28 96 -8 104 35 14z m409 -135
c0 9 4 17 10 17 5 0 9 -10 9 -22 0 -13 2 -32 6 -44 7 -24 -7 -38 -48 -48 -20
-5 -29 -2 -33 9 -6 14 -9 13 -21 -5 -17 -25 -32 -25 -49 -2 -12 16 -13 16 -14
-4 0 -25 -13 -37 -57 -52 -39 -13 -38 -13 -64 75 -20 70 -12 105 14 68 13 -17
14 -17 20 4 9 36 42 23 42 -16 0 -23 6 -35 21 -42 18 -8 21 -7 17 9 -8 29 18
36 38 9 l19 -24 0 33 c0 23 7 40 23 52 22 18 22 18 44 -8 18 -22 22 -23 23 -9z"/>
<path d="M287 310 c10 -17 21 -26 26 -21 15 15 -3 51 -24 51 -20 0 -20 -1 -2
-30z"/>
<path d="M562 220 c0 -14 2 -19 5 -12 2 6 2 18 0 25 -3 6 -5 1 -5 -13z"/>
<path d="M730 226 c0 -2 8 -10 18 -17 15 -13 16 -12 3 4 -13 16 -21 21 -21 13z"/>
<path d="M570 173 c1 -5 7 -19 14 -32 11 -19 14 -21 19 -7 8 21 -2 46 -19 46
-8 0 -14 -3 -14 -7z"/>
<path d="M526 875 c-6 -32 -10 -35 -44 -35 -20 0 -53 -3 -73 -6 -30 -5 -37 -3
-46 18 -10 19 -12 12 -12 -49 -1 -62 2 -74 18 -83 11 -5 73 -10 139 -10 146 0
152 4 152 102 0 80 -15 98 -82 98 -44 0 -46 -1 -52 -35z m91 -131 c9 -24 -5
-29 -27 -9 -19 17 -21 17 -38 2 -21 -19 -34 -13 -25 10 13 35 76 33 90 -3z"/>
<path d="M357 653 c-15 -14 -7 -43 12 -43 26 0 36 17 21 35 -14 16 -23 19 -33
8z"/>
<path d="M420 650 c0 -6 35 -10 85 -10 50 0 85 4 85 10 0 6 -35 10 -85 10 -50
0 -85 -4 -85 -10z"/>
<path d="M614 645 c-4 -9 -2 -21 4 -27 15 -15 44 -1 40 19 -4 23 -36 29 -44 8z"/>
<path d="M463 613 c26 -2 67 -2 90 0 23 2 2 3 -48 3 -49 0 -68 -1 -42 -3z"/>
</g>
</svg>
